<svg xmlns="http://www.w3.org/2000/svg" xmlns:xlink="http://www.w3.org/1999/xlink" width="500" height="500" viewBox="0 0 500 500">
  <defs>
    <style>
      .cls-1 {
        fill-rule: evenodd;
        fill: url(#linear-gradient);
      }
    </style>
    <linearGradient id="linear-gradient" x1="250.094" y1="316.188" x2="250.094" y2="183" gradientUnits="userSpaceOnUse">
      <stop offset="0" stop-color="#0040c7"/>
      <stop offset="1" stop-color="#149df3"/>
    </linearGradient>
  </defs>
  <path id="Gradient_Fill_1" data-name="Gradient Fill 1" class="cls-1" d="M374.628,204.858c65.235-1.661,71.181,86.851,4.575,94.038-47.991-2.408-59.3-56.383-36.6-78.789C352.6,209.7,358.855,206.584,374.628,204.858Zm1.525,16.774c-38.492,6.191-28.954,66.261,7.117,61C415.974,279.542,414.15,217.474,376.153,221.632ZM0,208.416H20.333l20.841,66.589,21.349-66.589H82.347l-30.5,86.413H31.007Zm107.254,0h19.825q16.01,43.2,32.024,86.413H138.77q-3.3-9.911-6.608-19.824l-30.5.508-6.1,19.316H75.739Zm62.015,0,17.791,0.508,37.615,58.965q-0.254-29.735-.508-59.473h17.791v86.413l-17.791-.508-37.615-59.473q0.254,29.988.508,59.981H169.269V208.416Zm90.988,0h19.316v86.413H260.257V208.416Zm41.174-.509C301.454,208.285,319.9,183,319.73,183c0.353,25.535-.508,82.089-0.508,104.713-0.37,8.55.023,16.421-7.116,22.874-9.406,8.059-16.531,6.361-26.941,1.525,0-3.992-.422-10.383-0.508-12.708,2.264,3.9,16.423,2.936,16.266-6.1C301.3,289.253,301.092,237.048,301.431,207.907Zm170.285,86.922H452.909c0-11.859-.508-23.722-0.508-35.582-9.827-16.942-20.165-33.889-29.991-50.831h21.349c5.93,10.843,13.386,21.689,19.316,32.532h0.508c5.93-10.843,10.337-21.689,16.267-32.532h20.332c-10,16.772-18.47,33.55-28.466,50.323v36.09Zm-354.8-66.081q-5.082,15.757-10.166,31.516v0.508h20.841Z"/>
</svg>
